<?xml version="1.0" encoding="UTF-8"?>
<svg id="Layer_2" data-name="Layer 2" xmlns="http://www.w3.org/2000/svg" viewBox="0 0 249.6 244.38">
  <defs>
    <style>
      .cls-1 {
        fill: #bf2d41;
      }

      .cls-1, .cls-2, .cls-3, .cls-4, .cls-5, .cls-6, .cls-7 {
        stroke-width: 0px;
      }

      .cls-2 {
        fill: #308a5f;
      }

      .cls-3 {
        fill: #3c43c1;
      }

      .cls-4 {
        fill: #328a5e;
      }

      .cls-5 {
        fill: #dc8931;
      }

      .cls-6 {
        fill: #fff;
      }

      .cls-7 {
        fill: #dbbf99;
      }
    </style>
  </defs>
  <g id="Layer_1-2" data-name="Layer 1">
    <g>
      <path class="cls-6" d="M249.39,137.99c-.23-3.81-.67-7.82-2.05-11.56-.89-2.4-2.51-3.58-4.95-3.19-3.3.53-6.52,1.49-9.82,2-5.22.82-10.23,2.53-15.52,3.16-3.74.44-6.17,2.13-5.86,6.31.09,1.27-.09,2.58.1,3.83.98,6.31.72,12.62-.89,18.71-1.05,3.98-2.26,8.26-6.16,10.96-1.05-6-2.14-11.79-3.03-17.6-.47-3.09-1.87-4.74-5.16-4.84-2.67-.08-5.3-.77-7.28-2.73-3.83-3.79-3.67-10.59,4.56-13.14,3.11-.96,3.78-2.78,3.62-5.45-.11-1.76-.37-3.51-.67-5.25-1.49-8.78-3.05-17.55-4.51-26.33-.47-2.8-3.32-4.93-6.15-4.3-10.33,2.32-19.72,6.41-26.98,14.46-2.43,2.69-5.08,5.31-6.62,8.57-2.81,5.98-6.65,11.63-6.75,19.14-1.22-1.61-.92-2.92-.93-4.13-.05-11.97.85-23.8,3.25-35.63,2.64-12.98,5.63-25.81,10.03-38.29,3.09-8.77-.72-19.51-9.15-23.34-10.17-4.62-20.47-1.35-25.38,9.31-4.64,10.06-7.18,20.88-9.68,31.66-2.55,11.01-4.42,22.1-5.25,33.37-.42,5.76-.87,11.51-1.31,17.27-.8-4.49-3.24-8.16-5.38-11.98-4.56-8.12-11.13-14.3-19.27-18.49-11.98-6.15-24.53-7.69-37.72-3.67-14.48,4.41-24.39,13.95-31.07,26.99-2.61,5.1-5.13,10.32-7.25,15.72-3.44,8.76-5.18,17.87-5.98,27.15-.45,5.35.02,10.73.72,16.14,1.45,11.08,4.36,21.69,8.5,32,4.63,11.52,11.39,21.86,18.14,32.18,2.36,3.6,5.9,5.92,9.98,6.79,9.74,2.06,16.96-1.24,22.36-9.72,2.46-3.86,2.43-13.54-.33-17-6.91-8.68-11.43-18.64-15.87-28.66-1.07-2.4-2.12-4.8-2.59-7.85,7.36,3.17,14.8,3.19,22.26,2.94,1.63-.06,2.19.66,2.73,1.97,1.91,4.69,4.56,8.98,8.34,12.34,6.47,5.75,13.64,9.72,22.58,11.08,6.42.98,12.4.53,18.32-1.18,6.65-1.92,12.67-5.27,17.32-10.6,1.31-1.5,2.35-1.46,3.82-.23,3.79,3.16,8.12,5.44,12.48,7.74,6.51,3.45,13.44,5.34,20.66,6.3,6.72.9,13.43.9,20.25.51,10.11-.58,19.6-2.75,28.41-7.72,9.24-5.2,17.03-11.98,22.29-21.31,7.78-13.82,9.77-28.91,8.84-44.41ZM107.82,141.19c1.11,1.81.98,3.11.98,4.3-.02,7.24.97,14.54-1.21,21.67-1.17,3.84-2.56,4.97-5.4,4.4-.72-.14-1.39-.29-1.62-1.04-.99-3.26-2.35-6.49-.05-9.81,3.92-5.68,6.51-11.93,7.3-19.52ZM50.78,134.25c-.01-4.39,3.57-7.97,8-7.98,4.42-.01,8.14,3.6,8.07,7.95-.08,4.9-3.93,8.02-7.74,7.99-4.54-.04-8.28-2.93-8.33-7.96ZM108.88,204.21c-12.18,1.35-22.92-1-31.88-9.62-3.65-3.51-6.33-7.72-7.84-12.61-1.47-1.41-.14-2.71.16-4.05,4.93-1.21,9.26-3.97,14.1-5.39.75-2.28,2.84-2.78,4.71-3.58.62-.97,2.18-.95,2.43-2.32.69-2.18,3-3.13,3.94-5.13.49.86.94,1.72.66,2.76.32,2.03.49,4.1,1.01,6.07,1.04,4.02,2.94,5.38,7.16,5.51,3.28.1,5.55-1.53,7-4.71,2.86-6.3,2.61-12.98,2.63-19.64.01-1.08.06-2.15.09-3.22.77,4.53,1.77,9,3.25,13.37,3.23,9.57,7.96,18.3,14.81,25.79.71.78,1.25,2.1,2.76,1.67-6.07,8.76-14.1,13.89-24.99,15.1Z"/>
      <path class="cls-6" d="M224.88,72c11.26,4.4,16.92,12.04,16.39,23.2-.37,7.82-7.75,16.26-16.8,18.42-8.43,2.01-17.76-1.49-23.06-10-5.06-8.12-3.34-17.85,4.85-27.25-15.15-6.06-18.81-19.85-12.93-31.23,5.8-11.22,21.24-12.87,29.14-7.94,6.33,3.95,9.7,9.78,10.3,16.97.59,7.13-2.28,13.15-7.89,17.83Z"/>
      <path class="cls-6" d="M92.27,17.48c.03-4.45,2.12-6.57,5.6-7.63,2.91-.88,5.76-1.95,8.68-2.81,2.53-.74,4.85-.46,6.75,2.32-.66-5.22,2.99-6.03,6.39-7.05,2.53-.76,5.06-1.55,7.64-2.14,3-.69,5.6.91,6.25,3.87,1.36,6.13.3,11.93-3.22,17.1-4.17,6.11-10.23,8.79-17.54,8.84-1.98.01-3.43.31-5.21,1.95-7.81,7.2-19.69,9.21-28.86,1.38-2.62-2.24-4.32-5.04-5.79-8.01-1.52-3.09-.61-5.69,2.6-7,3.44-1.41,7-2.55,10.58-3.56,2.27-.64,4.24.32,6.14,2.76Z"/>
      <path class="cls-3" d="M93.85,105.55c-5.39-6.66-12.58-11.88-20.72-14.61-12.09-4.06-25.95-2.7-36.87,3.88-9.41,5.67-16.34,14.78-21.32,24.58-7.64,15.04-11.13,32.16-10.01,49,1.53,23.11,11.44,45.49,24.72,64.18,3.85,5.41,9.61,9.24,16.59,7.42,6.64-1.73,11.48-8.69,10.79-15.52-.51-5.08-3.61-9.46-6.39-13.74-7.44-11.44-13.39-24.13-15.17-37.65,14.56,8.64,34.03,8.19,48.17-1.11,14.14-9.31,22.26-27.01,20.09-43.8-1.07-8.28-4.63-16.14-9.88-22.62ZM50.78,134.25c-.01-4.39,3.57-7.97,8-7.98,4.42-.01,8.14,3.6,8.07,7.95-.08,4.9-3.93,8.02-7.74,7.99-4.54-.04-8.28-2.93-8.33-7.96Z"/>
      <path class="cls-5" d="M244.17,160.23c-1.37,7.62-3.57,14.97-7.9,21.44-7.34,10.96-17.19,18.49-29.98,22.53-8.88,2.82-17.9,4.01-26.98,3.55-17.21-.87-32.87-6.17-45.44-18.64-1.51.43-2.05-.89-2.76-1.67-6.85-7.49-11.58-16.22-14.81-25.79-1.48-4.37-2.48-8.84-3.25-13.37-1.05-9.09-1.98-18.2-1.87-27.35.19-15.08,1.98-29.96,5.04-44.75,2.52-12.16,5.69-24.08,10.27-35.6,2.99-7.48,11.58-10.54,19.87-7.4,6.42,2.44,10.05,10.47,7.7,17.48-4.52,13.5-8.97,27.05-11.13,41.15-2.17,14.21-3.56,28.49-1.73,42.92.75,5.88,1.68,11.7,3.79,17.22,4.23,11.11,10.54,20.4,22.52,24.46,1.13.39,2.25.65,3.43.75,1.78-1.11,3.23.13,4.68.77,6.78,2.94,13.79,4.62,21.24,4.27,3.51-.17,3.8-.39,3.77-3.97-.01-1.1-.11-2.2,1-2.89,3.25-2.47,6.79-4.57,8.98-8.23,4.62-7.67,5.23-16.12,5.01-24.75-.07-2.84-1.34-6.01-.02-8.42,1.39-2.5,4.95-1.63,7.53-2.32,4.24-1.15,8.57-1.96,12.86-2.91,1.53-.67,3.36-.05,4.79-1.14,2.59-1.24,3.11.63,3.43,2.43,1.81,10.07,1.77,20.15-.04,30.23Z"/>
      <path class="cls-2" d="M201.63,175.34c-.75,1.36,0,2.7.15,4.02.28,2.65-.69,3.66-3.41,3.79-9.01.44-17.5-1.3-25.48-5.48-.64-.33-1.25-.53-1.96-.51-5.44-3.93-10.6-8.12-14.28-13.87-15.28-23.83-6.95-54.98,18.25-67.01,3.18-1.52,6.54-2.68,10.04-3.37,1.63-.32,2.49-.1,2.73,1.86,1.17,9.46,3.41,18.73,5.09,28.09.34,1.89-.05,2.9-2.09,3.61-5.49,1.9-8.67,6.8-8.11,11.93.68,6.24,4.38,10.23,10.75,10.97,3.03.35,4.32,1.4,4.63,4.55.58,5.86,1.64,11.67,2.57,17.49.21,1.34.35,2.73,1.12,3.93Z"/>
      <path class="cls-1" d="M133.87,189.11c-6.07,8.76-14.1,13.89-24.99,15.1-12.18,1.35-22.92-1-31.88-9.62-3.5-3.36-5.87-7.66-7.74-12.1-.57-1.36-1.15-3.64.4-4.66.39-.25.84-.39,1.28-.52,2.54-.77,5.03-1.69,7.47-2.75,3.6-1.56,7-3.63,9.96-6.21,1.39-1.21,2.6-2.57,3.85-3.92.32-.35,2.58-2.4,2.29-2.92.49.86.94,1.72.66,2.76.32,2.03.49,4.1,1.01,6.07,1.04,4.02,2.94,5.38,7.16,5.51,3.28.1,5.55-1.53,7-4.71,2.86-6.3,2.61-12.98,2.63-19.64.01-1.08.06-2.15.09-3.22.77,4.53,1.77,9,3.25,13.37,3.23,9.57,7.96,18.3,14.81,25.79.71.78,1.25,2.1,2.76,1.67Z"/>
      <path class="cls-1" d="M133.87,189.11c-1.51.43-2.05-.89-2.76-1.67-6.85-7.49-11.58-16.22-14.81-25.79-1.48-4.37-2.48-8.84-3.25-13.37,2.11,3.72,2.46,7.99,3.74,11.98,3.51,10.95,8.99,20.64,17.08,28.85Z"/>
      <path class="cls-7" d="M240.77,127.57c-1.17,2.18-3.18.81-4.79,1.14,1.4-1.19,3.12-1.05,4.79-1.14Z"/>
      <path class="cls-1" d="M219.79,109.82c-9.59,0-17.2-7.42-17.24-16.83-.03-7.95,6.54-17.08,17.14-16.83,9.65.23,17.47,7.56,17.52,16.93.04,8.94-8.07,16.73-17.42,16.73Z"/>
      <path class="cls-1" d="M211.78,72.08c-9.74.72-17.01-7.74-17.06-15.78-.08-11.16,7.56-17.44,16.81-17.73,9.58-.3,17.22,7.34,17.23,17.03,0,9.09-7.87,17.28-16.98,16.48Z"/>
      <path class="cls-4" d="M112.15,25.84c-2.83-1.02-5.17.35-7.95,3.22-5.84,6.03-13.46,6.79-20.23,2.93-3.11-1.77-5.36-4.51-7.07-7.69-.73-1.36-.58-2.16,1-2.63,1.88-.55,3.79-1.06,5.56-1.87,2.4-1.1,4.29-1.53,6.61.65,2.29,2.16,6.27.06,6.33-3.3.04-2.21,1.09-2.91,2.81-3.46,1.77-.57,3.52-1.23,5.29-1.8,2.22-.72,4.16-1.98,6.4.77,1.86,2.28,6.25.26,6.28-2.8.02-2.22,1.1-2.86,2.8-3.4,2.24-.71,4.46-1.5,6.67-2.29,2.69-.96,3.19.73,3.42,2.78,1.17,10.81-7.48,19.45-17.92,18.89Z"/>
      <path class="cls-6" d="M58.77,122.14c-6.59.07-12.25,5.62-12.13,11.9.14,6.98,5.56,12.42,12.34,12.39,6.53-.03,12.08-5.79,11.98-12.43-.1-6.48-5.69-11.93-12.19-11.86ZM59.11,142.21c-4.54-.04-8.28-2.93-8.33-7.96-.01-4.39,3.57-7.97,8-7.98,4.42-.01,8.14,3.6,8.07,7.95-.08,4.9-3.93,8.02-7.74,7.99Z"/>
    </g>
  </g>
</svg>